<svg xmlns="http://www.w3.org/2000/svg" xmlns:xlink="http://www.w3.org/1999/xlink" version="1.1" id="Layer_1" x="0px" y="0px" viewBox="0 0 48 79" style="enable-background:new 0 0 48 79;" xml:space="preserve">
<!-- TODO: upgrade fill to currentColor when a dark-header variant is introduced -->
<style type="text/css">
    .st0{fill:#242F3A;}
</style>
<polygon class="st0" points="35.8,70 27.8,65.8 32.5,59.4 25.7,62.9 24,55.5 22.3,62.9 15.5,59.4 20.2,65.8 12.2,69.9 20.7,69.5   18.8,77.8 18.8,77.8 18.8,77.8 24,71.1 28.3,76.7 29.1,77.8 29.1,77.8 29.2,77.8 28.8,76.4 27.3,69.5 "/>
<polygon class="st0" points="47.5,29.9 31.5,21.6 40.9,9 27.4,15.9 24,1.2 20.6,15.9 7.1,9 16.5,21.6 0.5,29.9 17.3,29 13.7,45.5   13.8,45.5 13.7,45.5 24,32.1 32.5,43.2 34.2,45.5 34.2,45.4 34.3,45.5 33.6,42.7 30.7,29 "/>
</svg>
